<?xml version="1.0" encoding="UTF-8"?>
<svg xmlns="http://www.w3.org/2000/svg" width="1200" height="630" viewBox="0 0 1200 630">
  <defs>
    <linearGradient id="bg" x1="0%" y1="0%" x2="100%" y2="100%">
      <stop offset="0%" stop-color="#00338C"/>
      <stop offset="60%" stop-color="#005CB9"/>
      <stop offset="100%" stop-color="#2d7df4"/>
    </linearGradient>
    <linearGradient id="road" x1="0%" y1="0%" x2="100%" y2="0%">
      <stop offset="0%" stop-color="#2a71d7" stop-opacity=".65"/>
      <stop offset="100%" stop-color="#7fb4ff" stop-opacity=".9"/>
    </linearGradient>
    <radialGradient id="focus" cx="60%" cy="45%" r="55%">
      <stop offset="0%" stop-color="#ffffff" stop-opacity=".35"/>
      <stop offset="70%" stop-color="#ffffff" stop-opacity=".08"/>
      <stop offset="100%" stop-color="#ffffff" stop-opacity="0"/>
    </radialGradient>
  </defs>
  <rect width="1200" height="630" fill="url(#bg)"/>
  <rect width="1200" height="630" fill="url(#focus)"/>
  <g fill="none" stroke="url(#road)" stroke-width="28" stroke-linecap="round" stroke-linejoin="round" opacity=".65">
    <path d="M84 118h368l184 158h332"/>
    <path d="M162 546h420l162-138h270"/>
    <path d="M284 48l32 524"/>
    <path d="M524 70l54 490"/>
    <path d="M944 64l-82 516"/>
    <path d="M140 260h314l222 192h300"/>
  </g>
  <g fill="#0b3d84" opacity=".55">
    <path d="M90 210h126v78H90z"/>
    <path d="M298 358h144v92H298z" opacity=".7"/>
    <path d="M892 186h160v110H892z" opacity=".7"/>
    <path d="M632 420h210v118H632z" opacity=".6"/>
  </g>
  <circle cx="600" cy="315" r="146" fill="rgba(0,20,55,0.35)"/>
  <g transform="translate(346.2 61.2) scale(2.4)">
    <path fill="#fff" d="M209.58 105.78a103.8 103.8 0 0 1-103.8 103.8 103.8 103.8 0 0 1-103.8-103.8 103.8 103.8 0 0 1 103.8-103.8 103.8 103.8 0 0 1 103.8 103.8Z" color="#000"/>
    <path d="M105.78 0C47.38 0 0 47.38 0 105.78s47.38 105.78 105.78 105.78 105.78-47.38 105.78-105.78S164.18 0 105.78 0zm0 3.97a101.78 101.78 0 0 1 101.81 101.8A101.78 101.78 0 0 1 105.78 207.6 101.78 101.78 0 0 1 3.97 105.78 101.78 101.78 0 0 1 105.77 3.97z" color="#000"/>
    <path d="M157 85.13c-12.07 0-18.38 5.11-18.38 12.95 0 2.5 1.55 6.08 4.16 7.77 4.57 2.96 8.4 3.4 13.65 4.68 3.01.74 6.28 1.59 6.28 3.51 0 1.6-1.62 2.79-5.9 2.79-8.48 0-10.15-4.47-10.15-4.47l-10.86 3.99c2.3 7.31 13.55 9.82 21 9.82 7.97 0 12.57-1.7 15.5-4.5 3.23-3.08 3.55-6.06 3.55-8.89 0-2.5-.98-5.82-5.78-8.6-3.5-2.01-10.56-3.25-13.64-3.9-1.16-.26-4.89-.8-4.89-3 0-1.64 2.33-2.53 5.46-2.53 6.18 0 7.17 4.18 7.17 4.18l10.9-4.01c-1.7-7.65-10.66-9.79-18.07-9.79zm36.02.19-13.07 4.8v34.5h13.08Zm-174.93.72v38.57h13.08v-7.19a166.93 166.93 0 0 0 14.75-5.59c9.14-4.16 9.53-9.37 9.53-13.7 0-5.37-4-12.09-15.15-12.09h-9.13Zm41.1 0v38.57h34v-9.5H72.27V110H88.7v-9.49H72.27v-5h20.55v-9.48Zm39.67 0v38.57h13.08v-7.19a166.93 166.93 0 0 0 14.75-5.59c9.14-4.16 9.53-9.37 9.53-13.7 0-5.37-4-12.09-15.15-12.09h-9.13Zm-67.69 9.48h6.54c2.2 0 4.03 1.79 4.03 4.06 0 2.7-1.04 4.14-4.97 5.78l-5.6 2.22Zm80.77 0h6.54c2.2 0 4.03 1.79 4.03 4.06 0 2.7-1.03 4.14-4.97 5.78l-5.6 2.22z"/>
    <path fill="#ff1400" d="M105.78 11.04a94.75 94.75 0 0 0-86.9 57.17c.34.12 18.82 6.66 37.48 6.66 29.15 0 64.1-11.91 101.76-11.91 19.07 0 33.18 4.72 34.62 5.22a94.75 94.75 0 0 0-86.96-57.14Z"/>
    <path fill="#0e0e96" d="M105.83 200.54a94.75 94.75 0 0 0 86.91-57.16c-.34-.13-18.83-6.67-37.48-6.67-29.15 0-64.1 11.92-101.77 11.92-19.06 0-33.17-4.72-34.62-5.22a94.75 94.75 0 0 0 86.96 57.13z"/>
  </g>
  <text x="600" y="548" font-family="Inter, 'Segoe UI', Arial, sans-serif" font-size="64" text-anchor="middle" fill="#f4f7ff" font-weight="600" letter-spacing="3">Pepsi Fountain Locator</text>
</svg>
